@startuml state2

skinparam dpi 500

state fork_environment <<fork>>
state join_environment <<join>> 
state agent_fork <<fork>>

[*] --> fork_environment
fork_environment --> LoadAgent
fork_environment --> LoadTextures 
fork_environment --> LoadCamera
fork_environment --> generateCustomEnv

LoadCamera --> join_environment
LoadTextures --> join_environment
LoadAgent --> join_environment
generateCustomEnv --> join_environment

join_environment --> agent_fork

agent_fork --> [*] : Press the exit button to end the game
agent_fork --> agentObservation
agentObservation --> agentActions
agentActions --> agentRewards
agentRewards --> agent_fork

@enduml
