@startuml class

skinparam Dpi 500
class Block {
    +blockPosition
    +itemID
    +textureName
    +hardness
    +image
    +rect
    +init(blockSize, blockPosition, itemID, textureName, hardness)
    +getHardness()
}

class breakPlaceHandler {
    +checkBreakable(block, inHand)
    +blockBreak(python_pos, world_block, player, test)
    +blockPlace(python_pos, world_block, player, test)
    +getBlockFromPos(pos, world_block)
}

class Camera {
    +offset
    +hWidth
    +hHeight
    +Player
    +init(player)
    +scroll()
    +draw(screen, worldBlocks)
    +getOffsets()
    +isColideable(block)
    +isOnScreen(block)
}

class ChunkGenerator {
    +drawOre(world, x, y, ore)
    +drawCave(world, x, y)
    +drawTree(world, y, x)
    +getWorldSprites(world, generatePos)
    +generateChunk(generatePos, worldBlocks)
}

class ChunkHandler {
    +updateChunkPositions(playerChunk)
    +checkChunkUpdates(player, worldBlocks)
}

class Button {
    +itemID
    +pos
    +image
    +rect
    +init(itemID, pos, width, height)
}

class Crafting {
    +relativeSize
    +recipes
    +allItems
    +screen
    +menuBackground
    +craftables
    +itemName
    +itemRecipe
    +itemsNeeded
    +canCraft
    +createdItem
    +craftButton
    +init(screen)
    +makeScreen()
    +makeBackground()
    +populatePossibleItems()
    +populateRecipe(itemID)
    +resetTable()
    +checkClick(pos)
    +makeItem(pos)
    +isCraftabel(itemID, playerInventory)
}

class gameSettings {
    +seed
    +octaves 
    +blockSize 
    +playerRange 
    +width 
    +height 
    +generatedChunks 
    +CHUNK_SIZE 
    +visibleChunks
    +drawCrafting 
    +craftingTablePos 
    +endGamePlaced 
    +drawPortal 
    +endGamePos 
    +getPos(pos)
    +distance(player, python_pos)
    +itemIDs{}
    +blockHardness{}
    +itemHardness{}
    +isPlaceable{}
    +craftingIDs{}
    +converterIDs{}
    +textureNames{}
    +immovableBlocks
    +clickableBlocks
}

class inventoryHandler {
    +NullItem
    +invArray
    +itemIDs
    +selected 
    +fullInv 
    +slots 
    +hotBarrSprite
    +relative 
    +clicked
    +addBlock(block)
    +addItem(item)
    +decrease()
    +decreaseSpec(itemID)
    +getSelected()
    +selectNext()
    +selectPrevious()
    +drawHotBar(screen)
    +getInv()
    +getItemCount(itemID)
    +drawInv(screen)
    +initGroup()
    +onClick(pos)

}

class slot {
    +image
    +width
    +height 
    +rect 
    +init(colour, left, top, width, height)
}

class Item {
    +itemName
    +itemID
    +isPlaceable
    +hardness
    +amount
    +texture
    +init(*args)
    +getItemName()
    +getItemID()
    +increase()
    +decrease()
    +getCount()
    +getHardness()
}

class itemHandler {
    +itemIDs
    +blockHardness 
    +itemHardness 
    +isPlacable 
    +textureNames 
    +immovableBlocks
    +clickableBlocks
    +craftingIDs{}
    +converterIDs{}
    +populateDictionaries()
}

class main {
    +clock
    +screen
    +gameRunning
    +color_light
    +color_dark
    +buttonFont
    +startPage
    +PausePage
    +infoPage
    +endPage
    +worldBlocks
    +collisionblocks
    +player
    +camera
    +startTime 
    +startPos
    +crafter
    +fakeKeys{}
    +font
    +fpsText
    +seedText
    +blockFrameImgName
    +blockFrameImg
    +blockFrame 
    +mousePos
    +blockPos 
    +mouse
    +gameMenu()
    +playMusic()
}

class menuHandler {
    +infoMenu(screen, clock, infoPage)
    +pauseMenu(screen, clock, pausePage)
    +mouseOffPause(clock)
    +endMenu(screen, clock, endPage)
}

class Player {
    +playerSize
    +image
    +jumped
    +rect
    +direction
    +gravity
    +character
    +y_momentum
    +keys
    +count
    +getPlayerPos()
    +MoveOnX(fakeKeys)
    +useGravity()
    +jump()
    +jumpArc()
    +collided(blocks)
    +update(dt, blocks)
    +stopMoveOnX()
    +willcollide(block)
}

class Portal {
    +blockPosition 
    +itemID 
    +textureName 
    +hardness 
    +image 
    +rect 
    +init(blockSize, blockPosition, itemID, textureName, hardness)
    +getHardness()
}

class RecipeHandler {
    +file
    +data
    +recipe{}
    +init()
    +getRecipeInfo(itemID)
    +getRecipe(itemID)
    +getCraftingAmount(itemID)
    +getAllItemIDs()
    +getCrafterShape(itemID)
}

class soundHandler {
    +audio 
    +getGrassSound()
    +playMusic()
    +playSoundForID(id)
    +playBreakSoundforID(id)
}

class Text {
    +my_font
    +words
    +image
    +pos
    +rect
    +init(text, fontSize, color, pos, background)
}


main --* Player
main --* Camera
main --* Crafting
main --* Block
main --> gameSettings
main --> breakPlaceHandler
main --> inventoryHandler
main --> ChunkGenerator
main --> ChunkHandler
main --> menuHandler
main --> soundHandler
main --> itemHandler

breakPlaceHandler --* Block
breakPlaceHandler --> Block
breakPlaceHandler --> gameSettings
breakPlaceHandler --> inventoryHandler
breakPlaceHandler --> soundHandler
breakPlaceHandler --> Player

Camera --> gameSettings

ChunkGenerator --> gameSettings
ChunkGenerator --* Block

ChunkHandler --> gameSettings
ChunkHandler --> ChunkGenerator

Button --> gameSettings

Crafting --* RecipeHandler
Crafting --* Button
Crafting --* Text
Crafting --* Item
Crafting --> gameSettings
Crafting --> inventoryHandler

inventoryHandler --* Item
inventoryHandler --* slot
inventoryHandler --* Block
inventoryHandler --> gameSettings

Item --> gameSettings

menuHandler --> gameSettings

Player --> gameSettings
Player --> soundHandler

Portal --> gameSettings

RecipeHandler --> gameSettings
@enduml